<svg xmlns="http://www.w3.org/2000/svg" version="1.1" xmlns:xlink="http://www.w3.org/1999/xlink" xmlns:svgjs="http://svgjs.dev/svgjs" width="1500" height="1500" viewBox="0 0 1500 1500"><rect width="1500" height="1500" fill="#61777f"></rect><g transform="matrix(0.6666666666666666,0,0,0.6666666666666666,249.39393939393938,438.5856950067477)"><svg viewBox="0 0 396 247" data-background-color="#61777f" preserveAspectRatio="xMidYMid meet" height="935" width="1500" xmlns="http://www.w3.org/2000/svg" xmlns:xlink="http://www.w3.org/1999/xlink"><g id="tight-bounds" transform="matrix(1,0,0,1,0.2400000000000091,-0.09999999999999432)"><svg viewBox="0 0 395.52 247.2" height="247.2" width="395.52"><g><svg></svg></g><g><svg viewBox="0 0 395.52 247.2" height="247.2" width="395.52"><g transform="matrix(1,0,0,1,75.54432000000001,106.5863004096171)"><svg viewBox="0 0 244.43135999999996 34.027399180765805" height="34.027399180765805" width="244.43135999999996"><g><svg viewBox="0 0 244.43135999999996 34.027399180765805" height="34.027399180765805" width="244.43135999999996"><g><svg viewBox="0 0 244.43135999999996 34.027399180765805" height="34.027399180765805" width="244.43135999999996"><g id="textblocktransform"><svg viewBox="0 0 244.43135999999996 34.027399180765805" height="34.027399180765805" width="244.43135999999996" id="textblock"><g><svg viewBox="0 0 244.43135999999996 34.027399180765805" height="34.027399180765805" width="244.43135999999996"><g transform="matrix(1,0,0,1,0,0)"><svg width="244.43135999999996" viewBox="3.5 -35.5 336.87 46.9" height="34.027399180765805" data-palette-color="#ffffff"><path d="M15.65-26.3L19.75-10.85 20.05-10.85 24.15-26.3Q25.45-31.3 28.15-33.15 30.85-35 36.3-35L36.3-35 36.3 0 31.6 0 31.6-29.7Q30.3-29.15 29.63-28.15 28.95-27.15 28.35-25.15L28.35-25.15 22.1-3.7 17.7-3.7 11.4-25.15Q10.8-27.2 10.15-28.18 9.5-29.15 8.2-29.7L8.2-29.7 8.2 0 3.5 0 3.5-35Q8.95-35 11.63-33.13 14.3-31.25 15.65-26.3L15.65-26.3ZM49.3-24L49.3 0 44.9 0 44.9-19.8 40.8-19.8 42.8-24 49.3-24ZM44.7-29L44.7-29Q44.05-29.85 44.05-30.85 44.05-31.85 44.7-32.68 45.35-33.5 46.7-33.5 48.05-33.5 48.7-32.68 49.35-31.85 49.35-30.85 49.35-29.85 48.7-29.03 48.05-28.2 46.7-28.2 45.35-28.2 44.7-29ZM67.15 0L67.15 0Q62.25 0 58.75-3.3 55.25-6.6 55.25-11.75L55.25-11.75Q55.25-16.95 58.77-20.48 62.3-24 67.5-24L67.5-24 79.25-24 79.25-0.7Q79.25 1.55 78.67 3.35 78.1 5.15 77.05 6.4 76 7.65 75.15 8.35 74.3 9.05 73.1 9.8L73.1 9.8Q70 11.4 65.55 11.4L65.55 11.4 59.95 11.4 59.95 7.2 65.1 7.2Q69.5 7.2 71.35 6.1L71.35 6.1Q74.75 4.2 74.75-0.2L74.75-0.2 74.75-19.8 67.5-19.8Q63.95-19.8 61.85-17.6 59.75-15.4 59.75-11.75L59.75-11.75Q59.75-8.25 61.92-6.23 64.1-4.2 67.15-4.2L67.15-4.2Q70.45-4.2 72.95-6L72.95-6 72.95-1.5Q70.25 0 67.15 0ZM105.39-24L105.39 0 96.74 0Q91.19 0 88.79-1.65L88.79-1.65Q86.64-3.1 86.07-5.13 85.49-7.15 85.49-10.45L85.49-10.45 85.49-24 89.89-24 89.89-10.5Q89.89-9.6 89.94-8.97 89.99-8.35 90.29-7.38 90.59-6.4 91.14-5.78 91.69-5.15 92.74-4.67 93.79-4.2 95.29-4.2L95.29-4.2 100.99-4.2 100.99-24 105.39-24ZM123.39-24.5L123.39-24.5Q131.89-24.15 131.89-17.45L131.89-17.45Q131.89-9.1 120.94-9.1L120.94-9.1 118.89-9.1 118.89-12.95 121.29-12.95Q124.64-12.95 125.94-13.98 127.24-15 127.24-17.4L127.24-17.4Q127.24-18.95 126.09-19.73 124.94-20.5 123.14-20.5L123.14-20.5Q119.59-20.5 117.57-18 115.54-15.5 115.54-12L115.54-12Q115.54-8.3 117.72-6 119.89-3.7 123.39-3.7L123.39-3.7Q126.54-3.7 128.54-5.25L128.54-5.25 131.54-2.3Q128.09 0.5 123.39 0.5L123.39 0.5Q117.69 0.5 114.29-2.85 110.89-6.2 110.89-11.5L110.89-11.5Q110.89-17.4 114.24-21.05 117.59-24.7 123.39-24.5ZM136.89-9.5L136.89-9.5 136.89-35 141.39-35 141.39-9.5Q141.39-7.7 141.81-6.58 142.24-5.45 143.14-4.98 144.04-4.5 144.89-4.35 145.74-4.2 147.14-4.2L147.14-4.2 147.14 0Q141.54 0 139.21-2.15 136.89-4.3 136.89-9.5ZM166.98-23.2L166.98 0 162.28 0 162.28-23Q162.28-28.9 165.46-32.2 168.63-35.5 173.88-35.5L173.88-35.5Q179.48-35.5 182.56-32.3 185.63-29.1 185.63-24.15L185.63-24.15Q185.63-21.05 184.51-18.75 183.38-16.45 181.48-15.2 179.58-13.95 177.43-13.35 175.28-12.75 172.93-12.75L172.93-12.75 169.18-12.75 169.18-17.15 173.48-17.15Q176.83-17.15 178.76-19.18 180.68-21.2 180.68-24.25L180.68-24.25Q180.68-27.25 178.91-29.18 177.13-31.1 173.83-31.1L173.83-31.1Q170.63-31.1 168.81-28.93 166.98-26.75 166.98-23.2L166.98-23.2ZM203.73-14.1L203.73-14.1 203.73-9.6Q201.83-11.05 199.08-11.05L199.08-11.05Q196.73-11.05 195.43-10.13 194.13-9.2 194.13-7.5L194.13-7.5Q194.13-4.2 199.03-4.2L199.03-4.2 205.63-4.2 205.63-13.75Q205.63-19.8 199.73-19.8L199.73-19.8 191.73-19.8 191.73-24 199.98-24Q204.83-24 207.43-21.6 210.03-19.2 210.03-14.7L210.03-14.7 210.03 0 198.88 0Q194.63 0 192.13-1.9 189.63-3.8 189.63-7.45 189.63-11.1 192.28-13 194.93-14.9 198.93-14.9L198.93-14.9Q201.18-14.9 203.73-14.1ZM215.78 0L215.78-24 224.43-24Q229.98-24 232.38-22.35L232.38-22.35Q234.53-20.9 235.1-18.88 235.68-16.85 235.68-13.55L235.68-13.55 235.68 0 231.28 0 231.28-13.5Q231.28-14.4 231.23-15.03 231.18-15.65 230.88-16.63 230.58-17.6 230.03-18.23 229.48-18.85 228.43-19.33 227.38-19.8 225.88-19.8L225.88-19.8 220.18-19.8 220.18 0 215.78 0ZM258.08-5.25L258.08-5.25 261.08-2.3Q257.63 0.5 253.18 0.5L253.18 0.5Q247.63 0.5 244.28-3.08 240.93-6.65 240.93-12L240.93-12Q240.93-17.25 244.45-20.88 247.98-24.5 253.18-24.5L253.18-24.5Q257.63-24.5 261.08-21.7L261.08-21.7 258.13-18.7Q256.03-20.3 253.18-20.3L253.18-20.3Q249.73-20.3 247.7-18.03 245.68-15.75 245.68-12 245.68-8.25 247.7-5.98 249.73-3.7 253.18-3.7L253.18-3.7Q256.08-3.7 258.08-5.25ZM265.32-35L269.72-35 269.72-24 273.97-24Q279.52-24 281.92-22.35L281.92-22.35Q284.07-20.9 284.65-18.88 285.22-16.85 285.22-13.55L285.22-13.55 285.22 0 280.82 0 280.82-13.5Q280.82-14.4 280.77-15.03 280.72-15.65 280.42-16.63 280.12-17.6 279.57-18.23 279.02-18.85 277.97-19.33 276.92-19.8 275.42-19.8L275.42-19.8 269.72-19.8 269.72 0 265.32 0 265.32-35ZM293.97-20.85L293.97-20.85Q297.47-24.5 302.72-24.5L302.72-24.5Q305.27-24.5 307.5-23.53 309.72-22.55 311.4-20.85 313.07-19.15 314.02-16.88 314.97-14.6 314.97-12L314.97-12Q314.97-9.4 314.05-7.13 313.12-4.85 311.47-3.15 309.82-1.45 307.57-0.48 305.32 0.5 302.72 0.5L302.72 0.5Q300.07 0.5 297.85-0.48 295.62-1.45 293.97-3.15 292.32-4.85 291.4-7.13 290.47-9.4 290.47-12L290.47-12Q290.47-17.3 293.97-20.85ZM302.72-20.3L302.72-20.3Q299.22-20.3 297.1-18 294.97-15.7 294.97-12 294.97-8.3 297.1-6 299.22-3.7 302.72-3.7L302.72-3.7Q306.27-3.7 308.37-6.03 310.47-8.35 310.47-12 310.47-15.65 308.37-17.98 306.27-20.3 302.72-20.3ZM320.47 0L320.47-24 329.12-24Q334.67-24 337.07-22.35L337.07-22.35Q339.22-20.9 339.79-18.88 340.37-16.85 340.37-13.55L340.37-13.55 340.37 0 335.97 0 335.97-13.5Q335.97-14.4 335.92-15.03 335.87-15.65 335.57-16.63 335.27-17.6 334.72-18.23 334.17-18.85 333.12-19.33 332.07-19.8 330.57-19.8L330.57-19.8 324.87-19.8 324.87 0 320.47 0Z" opacity="1" transform="matrix(1,0,0,1,0,0)" fill="#ffffff" class="wordmark-text-0" data-fill-palette-color="primary" id="text-0"></path></svg></g></svg></g></svg></g></svg></g></svg></g></svg></g><g><path d="M245.816 0c68.262 0 123.6 55.338 123.6 123.6 0 68.262-55.338 123.6-123.6 123.6-61.093 0-111.834-44.325-121.818-102.57h1.557c9.967 57.393 60.017 101.035 120.261 101.036 67.415 0 122.066-54.651 122.065-122.066 0-67.415-54.651-122.066-122.065-122.066-60.244 0-110.294 43.642-120.261 101.036h-1.557c9.984-58.245 60.725-102.57 121.818-102.57z" fill="#ffffff" stroke="transparent" data-fill-palette-color="tertiary"></path></g></svg></g><defs></defs></svg><rect width="395.52" height="247.2" fill="none" stroke="none" visibility="hidden"></rect></g></svg></g></svg>